<?xml version="1.0" standalone="no"?>
<!DOCTYPE svg PUBLIC "-//W3C//DTD SVG 20010904//EN"
 "http://www.w3.org/TR/2001/REC-SVG-20010904/DTD/svg10.dtd">
<svg version="1.0" xmlns="http://www.w3.org/2000/svg"
 width="1284.000000pt" height="588.000000pt" viewBox="0 0 1284.000000 588.000000"
 preserveAspectRatio="xMidYMid meet">

<g transform="translate(0.000000,588.000000) scale(0.100000,-0.100000)"
fill="#000000" stroke="none">
<path d="M6898 3413 c2 -27 10 -53 18 -59 12 -10 11 -15 -7 -38 -26 -33 -34
-33 -71 4 -16 17 -24 30 -18 30 6 0 -3 12 -21 27 -21 18 -34 24 -37 15 -5 -15
-49 -16 -91 -1 -24 8 -39 9 -56 1 -21 -10 -29 -7 -59 23 -24 23 -41 32 -53 28
-14 -5 -13 -8 6 -15 12 -4 19 -12 16 -18 -4 -6 -11 -8 -16 -5 -5 4 -12 -2 -16
-12 -3 -10 -15 -26 -27 -35 -12 -10 -15 -18 -8 -18 20 0 14 -28 -8 -35 -29 -9
-41 2 -34 31 6 23 4 25 -22 22 -18 -2 -33 -12 -40 -26 -6 -13 -16 -28 -21 -33
-15 -15 -43 1 -43 23 0 15 -3 18 -12 11 -44 -34 -94 -19 -155 46 l-43 46 -16
-23 c-12 -18 -22 -22 -40 -18 -28 7 -32 -8 -7 -23 14 -8 15 -12 4 -25 -17 -20
-50 -21 -65 -2 -6 8 -21 17 -33 21 -20 5 -23 3 -23 -20 0 -25 -1 -25 -25 -9
-23 15 -25 15 -31 0 -14 -36 -64 3 -64 50 0 15 -23 24 -62 24 -29 0 -30 -1
-24 -35 4 -22 3 -35 -4 -35 -5 0 -10 -7 -10 -16 0 -11 -5 -14 -16 -10 -9 3
-24 6 -35 6 -10 0 -19 5 -19 11 0 7 10 9 24 7 29 -6 43 26 21 48 -14 15 -77
19 -89 7 -4 -4 -15 -8 -23 -8 -9 0 -18 -6 -20 -12 -3 -8 4 -13 19 -13 15 0 27
-9 36 -27 17 -38 15 -44 -12 -37 -13 3 -27 1 -30 -5 -13 -20 -27 -12 -16 9 6
11 15 19 19 17 5 -1 8 2 8 7 -1 6 -14 11 -29 13 -24 2 -28 -1 -28 -21 0 -30
-15 -42 -64 -51 l-39 -8 7 38 c7 37 7 37 -16 21 -30 -21 -38 -20 -38 5 0 49
-14 57 -91 51 -53 -4 -73 -1 -79 9 -7 11 -13 11 -34 0 -13 -8 -34 -11 -45 -8
-16 4 -21 0 -21 -13 0 -10 -7 -20 -15 -24 -21 -8 -19 -23 5 -29 14 -4 20 0 20
13 0 29 27 45 55 32 31 -15 31 -26 0 -50 -30 -24 -31 -32 -5 -32 20 0 46 -35
32 -44 -4 -2 -27 -2 -50 1 -42 6 -52 19 -30 41 6 6 8 15 3 19 -4 5 -10 3 -12
-3 -3 -9 -12 -9 -34 0 -28 10 -31 14 -26 48 3 25 0 41 -9 49 -8 6 -14 18 -14
26 0 9 -7 13 -17 11 -10 -2 -17 -10 -15 -18 2 -8 -3 -19 -11 -25 -8 -6 -17
-22 -19 -35 -3 -23 -7 -25 -48 -22 -42 3 -46 1 -58 -26 -10 -24 -17 -29 -35
-25 -12 3 -27 10 -33 15 -7 5 -31 6 -54 2 -31 -5 -44 -3 -51 7 -11 18 -59 22
-59 5 0 -8 6 -19 14 -25 8 -6 16 -23 18 -36 4 -20 -1 -28 -23 -39 -27 -13 -52
-5 -29 9 15 9 12 72 -4 78 -7 3 -16 19 -19 36 -8 37 -45 91 -64 91 -7 0 -13
-4 -13 -10 0 -14 -27 -12 -33 3 -2 6 0 20 5 29 6 13 5 16 -5 12 -16 -6 -37
-47 -37 -71 0 -11 6 -14 21 -10 14 4 19 2 15 -8 -2 -7 4 -15 17 -19 20 -5 20
-6 2 -26 -10 -11 -24 -20 -31 -20 -7 0 -14 -5 -16 -11 -2 -6 -14 -5 -33 5 -17
9 -35 16 -41 16 -7 0 -15 8 -18 18 -14 38 -36 66 -53 68 -10 1 -26 5 -35 9
-26 10 -24 -40 2 -62 23 -20 10 -43 -26 -43 -19 0 -23 -6 -26 -37 -3 -32 -7
-38 -25 -37 -13 0 -23 -3 -23 -8 0 -4 -8 -8 -17 -8 -10 0 -14 4 -8 8 6 4 10
33 11 65 0 43 -3 57 -14 57 -7 0 -26 7 -42 16 -36 22 -96 12 -103 -16 -3 -12
-14 -20 -27 -20 -19 0 -20 4 -14 35 8 45 -11 75 -31 48 -10 -13 -10 -22 -3
-31 8 -9 6 -16 -8 -27 -11 -8 -14 -14 -6 -15 6 0 12 -10 12 -21 0 -16 -5 -20
-20 -16 -11 3 -23 1 -26 -4 -9 -15 -33 -10 -63 12 -25 19 -32 19 -72 8 -56
-15 -77 -15 -113 2 -26 12 -28 17 -23 56 2 24 1 43 -3 43 -14 0 -30 -28 -24
-43 3 -8 1 -18 -4 -21 -6 -3 -8 -15 -5 -26 3 -11 1 -20 -5 -20 -11 0 -42 60
-42 81 0 8 -6 5 -14 -6 -8 -11 -12 -25 -9 -32 7 -17 -23 -58 -32 -43 -4 6 -16
8 -27 4 -13 -4 -24 -1 -29 7 -14 22 -10 37 8 35 12 0 19 7 21 22 2 15 9 22 20
20 10 -2 17 4 17 12 0 10 -8 14 -22 12 -27 -4 -31 13 -5 23 16 6 16 7 -1 17
-24 13 -53 2 -39 -15 5 -6 7 -26 5 -44 -6 -35 -28 -47 -80 -44 -18 2 -42 -4
-54 -12 -12 -9 -27 -13 -34 -11 -7 3 -19 -3 -26 -14 -17 -24 -79 -35 -79 -15
0 8 -12 29 -26 47 -27 33 -27 33 -106 27 -4 -1 -5 -8 -2 -16 4 -10 0 -15 -11
-15 -13 0 -16 -6 -11 -24 5 -20 1 -25 -19 -30 -35 -9 -21 -28 17 -24 36 4 49
-17 17 -25 -18 -5 -20 -9 -10 -20 9 -12 7 -16 -15 -21 -34 -9 -52 7 -34 29 10
12 10 15 -3 15 -10 0 -14 6 -11 15 4 10 0 15 -15 15 -24 0 -56 43 -47 65 3 10
-1 15 -13 15 -11 0 -21 5 -23 11 -2 7 -15 2 -31 -13 l-26 -24 22 -22 21 -22
-21 0 c-12 0 -23 6 -26 13 -2 6 -8 9 -13 4 -4 -4 -3 -35 3 -70 10 -61 8 -70
-22 -80 -6 -2 -5 -13 2 -30 11 -24 9 -29 -22 -58 -37 -35 -33 -59 9 -59 30 0
43 -11 47 -40 3 -21 9 -24 32 -22 18 2 27 -2 27 -11 0 -19 48 -50 66 -43 16 6
17 15 4 36 -9 13 -11 13 -20 0 -7 -11 -8 -5 -4 20 4 19 11 40 17 45 7 7 8 5 4
-7 -8 -22 17 -41 43 -33 12 4 27 2 34 -4 8 -7 23 -7 47 -1 18 6 35 10 36 10 1
0 3 -12 5 -27 2 -19 8 -28 20 -27 10 1 31 -13 48 -32 18 -21 35 -32 45 -28 30
12 14 30 -22 25 -7 -1 -13 5 -13 14 0 17 16 20 25 5 3 -5 13 -6 22 -3 13 5 15
0 11 -31 -3 -30 -1 -35 11 -30 9 4 29 8 45 9 16 1 33 9 38 18 19 35 65 5 60
-39 -4 -30 23 -33 31 -4 3 11 11 19 18 18 7 -2 15 6 17 17 8 40 62 62 62 25 0
-14 5 -18 17 -13 12 5 15 2 10 -9 -7 -20 11 -44 41 -51 16 -4 25 0 29 11 4 9
17 27 29 40 17 18 27 21 41 14 10 -5 27 -6 38 -2 11 4 33 1 50 -6 44 -18 85
-8 85 23 0 20 3 22 20 13 15 -8 21 -6 30 11 9 15 8 24 -1 35 -9 11 -8 14 10
14 11 0 21 -4 21 -9 0 -5 8 -7 19 -4 25 6 34 -11 33 -64 0 -36 3 -43 19 -43
12 0 23 -10 29 -25 6 -15 17 -25 29 -25 27 0 34 15 16 30 -21 18 -3 36 43 45
20 4 48 15 63 26 15 10 32 19 38 19 12 0 14 11 5 34 -3 9 -12 12 -22 9 -14 -5
-15 -3 -5 7 11 12 18 10 44 -9 20 -15 38 -21 54 -17 57 14 91 -25 65 -75 -7
-12 -7 -19 -1 -19 12 0 26 39 22 63 -1 9 3 17 9 17 7 0 10 -7 7 -15 -4 -8 -2
-17 3 -20 6 -4 10 -15 10 -26 0 -14 7 -19 29 -19 17 0 33 5 36 10 3 6 15 10
26 10 28 0 24 13 -16 55 -40 41 -38 57 7 48 22 -4 33 -2 40 10 11 21 28 22 28
2 0 -8 6 -12 14 -9 7 3 16 -2 20 -11 4 -11 12 -14 26 -10 11 4 20 2 20 -4 0
-6 18 -11 41 -11 36 0 40 2 34 20 -6 17 -2 20 28 20 36 0 74 -30 62 -49 -3 -6
2 -12 12 -12 10 -1 33 -3 50 -5 48 -3 93 -26 93 -46 0 -11 5 -15 15 -12 17 7
21 34 4 34 -6 0 -9 6 -6 13 7 22 32 13 32 -12 0 -32 22 -38 30 -9 14 51 28 68
55 68 15 0 33 -7 40 -15 17 -20 24 -19 59 11 32 27 51 25 51 -6 0 -22 19 -30
41 -17 11 7 28 7 50 1 28 -8 34 -15 34 -37 -1 -22 4 -27 25 -27 18 0 29 8 38
29 7 16 23 32 35 36 21 7 21 8 -5 12 -16 2 -28 7 -28 11 1 12 24 37 53 55 28
18 28 18 56 -12 32 -34 42 -37 71 -19 14 9 25 9 42 1 13 -6 31 -14 41 -17 17
-5 42 -52 38 -70 -1 -5 11 -5 26 -2 15 4 46 7 68 7 22 1 48 8 57 16 11 10 22
12 35 5 10 -5 24 -7 32 -4 8 2 18 -3 23 -12 12 -22 25 -20 33 4 4 13 14 19 28
17 18 -2 22 2 19 26 -2 24 1 27 25 27 15 0 37 3 49 6 17 5 22 0 27 -25 5 -21
12 -31 25 -31 10 0 23 -5 30 -12 8 -8 14 -5 21 14 10 26 48 68 62 68 4 0 21
-12 38 -26 17 -14 31 -20 31 -14 0 9 11 11 36 7 43 -7 66 3 115 50 42 39 76
42 71 5 -2 -14 3 -24 15 -28 10 -3 25 -8 33 -12 8 -3 19 -4 24 -3 5 1 6 -7 3
-19 -3 -11 -1 -20 3 -20 5 0 15 -3 24 -6 10 -4 16 -1 16 9 0 21 60 29 82 10
15 -13 17 -12 20 9 5 37 32 27 46 -17 18 -55 32 -67 32 -27 0 27 4 32 24 32
38 0 86 12 86 21 0 5 -7 9 -15 9 -21 0 -19 10 15 54 l30 40 1 -40 c0 -21 2
-47 4 -57 5 -27 35 -57 57 -57 15 0 17 5 12 26 -6 23 -4 25 15 19 17 -5 21 -2
21 17 0 19 5 23 30 22 30 -1 70 -24 42 -24 -15 0 -6 -48 13 -69 15 -16 55 -6
55 14 0 18 57 44 90 42 18 -1 26 -9 28 -26 3 -20 8 -22 34 -17 17 3 37 1 44
-5 14 -11 34 -5 34 11 0 18 -40 32 -56 19 -16 -13 -18 -1 -8 39 5 16 13 22 28
20 16 -2 22 4 26 27 3 20 12 31 26 33 16 2 22 -5 29 -40 10 -43 10 -43 50 -40
40 2 40 2 15 -13 -14 -8 -34 -15 -45 -15 -19 -1 -19 -2 3 -17 12 -8 22 -23 22
-32 0 -13 2 -13 9 -2 7 11 13 10 33 -3 27 -17 40 -13 31 11 -8 20 52 73 82 73
13 0 25 6 28 13 3 9 12 8 35 -5 16 -10 38 -18 48 -18 14 0 15 -3 6 -12 -16
-16 -15 -28 2 -28 7 0 19 -7 27 -16 7 -8 21 -13 31 -11 13 4 18 0 16 -11 -2
-13 6 -17 38 -18 46 -2 54 2 71 32 9 17 9 30 -2 60 -8 25 -10 45 -4 56 14 25
11 30 -11 23 -29 -9 -54 13 -38 32 9 11 9 19 -1 35 -9 15 -9 23 0 34 16 20 31
17 58 -11 17 -18 30 -24 45 -19 11 4 21 7 21 8 0 0 6 12 13 25 11 20 12 25 1
32 -8 4 -14 16 -15 26 0 10 -1 35 -2 57 -2 37 -3 38 -32 33 -23 -5 -32 -2 -41
14 -8 15 -18 20 -35 16 -18 -3 -24 0 -24 14 0 10 -5 21 -11 24 -6 5 -4 11 6
19 16 11 15 14 -9 29 -21 14 -26 15 -26 3 0 -7 -7 -19 -15 -26 -8 -7 -12 -16
-10 -21 12 -18 -42 -40 -84 -33 -28 4 -41 3 -41 -5 0 -6 -4 -11 -10 -11 -5 0
-10 9 -10 20 0 11 -4 20 -10 20 -5 0 -10 -6 -10 -14 0 -8 -7 -16 -15 -20 -9
-3 -15 0 -15 8 0 8 5 16 12 18 22 8 -1 59 -32 70 -17 5 -30 17 -30 25 0 8 -6
13 -12 11 -7 -3 -13 -10 -13 -15 0 -32 -60 -34 -103 -5 -41 29 -58 32 -81 16
-12 -8 -25 -12 -31 -9 -5 3 -8 -14 -7 -45 1 -28 6 -49 12 -47 6 2 10 10 10 18
1 19 14 39 27 39 6 0 7 -7 3 -17 -4 -10 -8 -24 -9 -32 -6 -36 -76 -46 -101
-15 -5 7 -19 14 -30 16 -12 2 -19 10 -17 20 3 23 -25 31 -38 10 -9 -16 -11
-16 -24 2 -8 10 -19 15 -24 12 -11 -7 -36 43 -33 67 1 9 -1 17 -5 17 -12 0
-52 -48 -56 -67 -4 -21 -23 -20 -23 1 0 23 -13 30 -29 17 -18 -15 -58 2 -50
22 3 8 -10 20 -31 30 -20 9 -37 17 -38 17 -1 0 -1 -21 1 -47z m-1157 -56 c-13
-13 -26 -3 -16 12 3 6 11 8 17 5 6 -4 6 -10 -1 -17z m1445 -33 c19 -13 22 -20
13 -30 -15 -18 -37 -18 -56 1 -12 12 -13 19 -3 30 15 19 15 19 46 -1z m-3836
-24 c0 -5 -4 -10 -10 -10 -5 0 -10 5 -10 10 0 6 5 10 10 10 6 0 10 -4 10 -10z
m3293 -17 c-4 -9 1 -21 12 -29 13 -10 16 -17 9 -24 -7 -7 -16 -6 -28 3 -14 10
-17 21 -11 45 3 18 11 30 15 27 5 -3 6 -13 3 -22z m-3838 -3 c3 -5 -1 -10 -10
-10 -9 0 -13 5 -10 10 3 6 8 10 10 10 2 0 7 -4 10 -10z m4983 -38 c3 -23 -13
-52 -28 -52 -9 0 -19 68 -11 76 12 12 36 -3 39 -24z m-4423 -2 c3 -5 -1 -10
-9 -10 -9 0 -16 5 -16 10 0 6 4 10 9 10 6 0 13 -4 16 -10z m3945 0 c0 -5 -8
-10 -17 -10 -15 0 -16 2 -3 10 19 12 20 12 20 0z m-1401 -24 c13 -15 4 -73 -9
-59 -11 13 -21 73 -11 73 5 0 14 -6 20 -14z m-511 -19 c7 -8 6 -18 -3 -31 -14
-19 -35 -14 -35 8 0 7 -10 12 -21 12 -12 -1 -24 4 -26 9 -5 15 73 16 85 2z
m-2535 -27 c-3 -12 -14 -20 -26 -20 -19 0 -20 1 -2 20 10 11 21 20 26 20 4 0
5 -9 2 -20z m415 -8 c2 -7 -6 -12 -17 -12 -21 0 -27 11 -14 24 9 9 26 2 31
-12z m2857 8 c3 -5 1 -10 -4 -10 -6 0 -11 5 -11 10 0 6 2 10 4 10 3 0 8 -4 11
-10z m944 -19 c-15 -5 -22 6 -14 19 6 9 10 9 16 -1 5 -8 4 -15 -2 -18z m411
-110 c0 -5 -7 -11 -15 -15 -9 -3 -15 0 -15 9 0 8 7 15 15 15 8 0 15 -4 15 -9z
m-281 -32 c15 -12 21 -23 15 -29 -11 -11 -92 -22 -104 -15 -13 8 -1 35 15 35
7 0 18 7 25 15 16 19 20 19 49 -6z m411 -8 c0 -12 -20 -25 -27 -18 -7 7 6 27
18 27 5 0 9 -4 9 -9z m-4335 -39 c-8 -9 -25 20 -18 31 3 5 10 2 15 -7 6 -10 7
-20 3 -24z m1215 30 c0 -15 -22 -30 -36 -25 -24 9 -16 33 11 33 14 0 25 -4 25
-8z m-920 -80 c0 -4 -12 -10 -25 -14 -27 -7 -35 6 -10 16 8 3 15 16 16 28 l0
23 9 -23 c5 -12 9 -26 10 -30z m2362 13 c9 -19 9 -28 0 -37 -15 -15 -18 -11
-25 30 -8 38 8 43 25 7z m-2824 -2 c2 -8 -6 -13 -22 -13 -25 0 -33 10 -19 24
10 10 36 3 41 -11z m641 -5 c13 -33 2 -43 -21 -20 -11 11 -17 25 -14 31 11 18
26 13 35 -11z m1241 7 c0 -8 -4 -15 -9 -15 -13 0 -22 16 -14 24 11 11 23 6 23
-9z m2930 -12 c0 -17 -16 -28 -37 -28 -13 0 -22 4 -20 10 1 5 10 8 20 7 9 -2
17 2 17 7 0 6 5 11 10 11 6 0 10 -3 10 -7z m-2582 -20 c-5 -25 -28 -28 -28 -4
0 12 6 21 16 21 9 0 14 -7 12 -17z m-2108 -3 c0 -5 -8 -10 -17 -10 -15 0 -16
2 -3 10 19 12 20 12 20 0z m560 0 c0 -5 -4 -10 -10 -10 -5 0 -10 5 -10 10 0 6
5 10 10 10 6 0 10 -4 10 -10z m1935 0 c3 -6 -1 -13 -10 -16 -19 -8 -30 0 -20
15 8 14 22 14 30 1z"/>
<path d="M7166 3439 c-15 -18 -15 -23 -5 -30 19 -12 33 -6 37 15 6 30 -12 38
-32 15z"/>
<path d="M7622 3448 c-18 -18 -14 -28 8 -28 11 0 20 6 20 14 0 21 -15 27 -28
14z"/>
<path d="M7856 3431 c-12 -5 -15 -10 -9 -14 6 -4 16 0 23 8 14 17 13 17 -14 6z"/>
<path d="M6361 3414 c0 -11 3 -14 6 -6 3 7 2 16 -1 19 -3 4 -6 -2 -5 -13z"/>
<path d="M3796 3385 c4 -8 12 -15 20 -15 8 0 14 7 14 15 0 8 -9 15 -20 15 -13
0 -18 -5 -14 -15z"/>
<path d="M7817 3353 c-12 -11 -8 -23 8 -23 8 0 15 7 15 15 0 16 -12 20 -23 8z"/>
<path d="M2860 3340 c0 -5 6 -10 14 -10 8 0 18 5 21 10 3 6 -3 10 -14 10 -12
0 -21 -4 -21 -10z"/>
<path d="M2925 3340 c3 -5 10 -10 16 -10 5 0 9 5 9 10 0 6 -7 10 -16 10 -8 0
-12 -4 -9 -10z"/>
<path d="M8080 3005 c7 -9 15 -13 17 -11 7 7 -7 26 -19 26 -6 0 -6 -6 2 -15z"/>
<path d="M7676 2912 c-3 -6 -1 -14 5 -17 14 -9 20 -2 10 14 -6 8 -11 9 -15 3z"/>
<path d="M4615 2830 c10 -11 22 -20 27 -20 4 0 8 9 8 20 0 15 -7 20 -27 20
-25 0 -26 0 -8 -20z"/>
<path d="M4670 2835 c-7 -9 -10 -18 -7 -22 8 -7 37 15 37 28 0 14 -16 11 -30
-6z"/>
<path d="M5500 2821 c0 -5 5 -13 10 -16 6 -3 10 -2 10 4 0 5 -4 13 -10 16 -5
3 -10 2 -10 -4z"/>
<path d="M6480 2804 c0 -8 5 -12 10 -9 6 4 8 11 5 16 -9 14 -15 11 -15 -7z"/>
<path d="M3058 2803 c7 -3 16 -2 19 1 4 3 -2 6 -13 5 -11 0 -14 -3 -6 -6z"/>
<path d="M3474 2749 c-3 -6 -1 -16 5 -22 8 -8 11 -5 11 11 0 24 -5 28 -16 11z"/>
</g>
</svg>
